<?xml version="1.0" standalone="no"?>
<!DOCTYPE svg PUBLIC "-//W3C//DTD SVG 20010904//EN"
 "http://www.w3.org/TR/2001/REC-SVG-20010904/DTD/svg10.dtd">
<svg version="1.0" xmlns="http://www.w3.org/2000/svg"
 width="297.000000pt" height="70.000000pt" viewBox="0 0 297.000000 70.000000"
 preserveAspectRatio="xMidYMid meet">

<g transform="translate(0.000000,70.000000) scale(0.100000,-0.100000)"
fill="#000000" stroke="none">
<path d="M1384 621 c-89 -22 -140 -88 -131 -170 7 -59 47 -95 150 -134 109
-42 137 -61 137 -95 0 -43 -28 -62 -88 -62 -48 0 -82 -17 -82 -41 0 -17 40
-49 63 -50 118 -8 198 48 199 139 1 80 -37 118 -184 181 -91 39 -113 60 -104
96 15 58 118 69 183 19 35 -27 53 -30 71 -12 60 60 -100 156 -214 129z"/>
<path d="M2611 613 c-26 -18 -27 -45 -2 -67 36 -32 88 5 71 50 -11 28 -43 36
-69 17z"/>
<path d="M126 594 c-9 -8 -16 -21 -16 -28 0 -7 38 -72 85 -146 l85 -134 0 -91
c0 -93 8 -115 41 -115 38 0 49 27 49 122 0 89 1 92 40 154 42 66 48 92 28 112
-24 24 -57 13 -84 -28 -15 -22 -29 -40 -33 -40 -3 0 -30 40 -60 88 -30 48 -61
95 -69 105 -19 21 -46 22 -66 1z"/>
<path d="M456 594 c-19 -18 -20 -28 -6 -55 20 -37 80 -18 80 26 0 42 -44 59
-74 29z"/>
<path d="M646 591 c-16 -18 -18 -38 -14 -188 3 -163 4 -170 32 -220 50 -90
142 -133 246 -113 122 23 190 124 190 282 0 55 -4 72 -20 88 -24 24 -30 24
-56 6 -16 -12 -20 -31 -24 -115 -5 -97 -7 -102 -37 -132 -61 -61 -182 -48
-216 24 -14 28 -17 66 -17 194 0 142 -2 162 -18 176 -24 22 -45 21 -66 -2z"/>
<path d="M1016 591 c-40 -44 24 -95 66 -53 20 20 20 22 4 46 -20 31 -46 33
-70 7z"/>
<path d="M1810 591 c-6 -12 -10 -109 -10 -246 0 -137 4 -234 10 -246 12 -21
50 -25 68 -7 8 8 12 46 12 105 l0 93 115 0 115 0 0 -83 c0 -89 15 -127 50
-127 44 0 50 22 50 189 0 145 -2 159 -20 176 -28 25 -66 8 -75 -34 l-7 -31
-114 0 -114 0 0 103 c0 67 -4 107 -12 115 -18 18 -56 14 -68 -7z"/>
<path d="M2136 588 c-13 -19 -14 -25 -2 -43 18 -27 56 -32 73 -9 17 23 16 39
-3 58 -22 22 -50 20 -68 -6z"/>
<path d="M2459 557 c-20 -14 -47 -48 -66 -86 -45 -87 -46 -162 -2 -249 90
-180 319 -210 454 -60 46 51 75 122 75 183 0 55 -28 129 -66 173 -45 53 -68
66 -93 53 -33 -18 -32 -49 3 -89 47 -52 56 -74 56 -131 0 -87 -31 -138 -105
-172 -86 -40 -185 -11 -231 66 -48 83 -41 160 22 233 38 45 41 67 8 88 -18 13
-25 12 -55 -9z"/>
<path d="M1258 219 c-36 -21 -16 -79 27 -79 44 0 63 60 26 80 -24 12 -31 12
-53 -1z"/>
</g>
</svg>
